<mxfile host="app.diagrams.net" modified="2022-03-07T15:35:25.964Z" agent="5.0 (Windows NT 10.0; Win64; x64) AppleWebKit/537.36 (KHTML, like Gecko) Chrome/99.0.4844.51 Safari/537.36" etag="uFdF3qPzR8sF6_YYAUCt" version="16.6.6" type="github">
  <diagram id="fI4AuKu4Az4P9p1ufU6o" name="Page-1">
    <mxGraphModel dx="1153" dy="603" grid="1" gridSize="10" guides="1" tooltips="1" connect="1" arrows="1" fold="1" page="1" pageScale="1" pageWidth="827" pageHeight="1169" math="0" shadow="0">
      <root>
        <mxCell id="0" />
        <mxCell id="1" parent="0" />
        <mxCell id="gvnlmwaFr9IDAYGD7fr9-3" value="" style="edgeStyle=orthogonalEdgeStyle;rounded=0;orthogonalLoop=1;jettySize=auto;html=1;" edge="1" parent="1" source="gvnlmwaFr9IDAYGD7fr9-1" target="gvnlmwaFr9IDAYGD7fr9-2">
          <mxGeometry relative="1" as="geometry" />
        </mxCell>
        <mxCell id="gvnlmwaFr9IDAYGD7fr9-1" value="Modèle Conçus" style="ellipse;whiteSpace=wrap;html=1;strokeWidth=2;" vertex="1" parent="1">
          <mxGeometry x="70" y="40" width="120" height="80" as="geometry" />
        </mxCell>
        <mxCell id="gvnlmwaFr9IDAYGD7fr9-2" value="ET" style="triangle;whiteSpace=wrap;html=1;strokeWidth=1;direction=south;" vertex="1" parent="1">
          <mxGeometry x="90" y="170" width="80" height="60" as="geometry" />
        </mxCell>
        <mxCell id="gvnlmwaFr9IDAYGD7fr9-4" value="Lancer commande tissu" style="rounded=0;whiteSpace=wrap;html=1;strokeWidth=1;" vertex="1" parent="1">
          <mxGeometry x="80" y="230" width="100" height="30" as="geometry" />
        </mxCell>
        <mxCell id="gvnlmwaFr9IDAYGD7fr9-5" value="OP1" style="rounded=0;whiteSpace=wrap;html=1;strokeWidth=1;" vertex="1" parent="1">
          <mxGeometry x="80" y="260" width="100" height="30" as="geometry" />
        </mxCell>
        <mxCell id="gvnlmwaFr9IDAYGD7fr9-8" value="" style="edgeStyle=orthogonalEdgeStyle;rounded=0;orthogonalLoop=1;jettySize=auto;html=1;" edge="1" parent="1" source="gvnlmwaFr9IDAYGD7fr9-6" target="gvnlmwaFr9IDAYGD7fr9-7">
          <mxGeometry relative="1" as="geometry" />
        </mxCell>
        <mxCell id="gvnlmwaFr9IDAYGD7fr9-6" value="Toujours" style="rounded=0;whiteSpace=wrap;html=1;strokeWidth=1;" vertex="1" parent="1">
          <mxGeometry x="80" y="290" width="100" height="30" as="geometry" />
        </mxCell>
        <mxCell id="gvnlmwaFr9IDAYGD7fr9-7" value="Tissu commandé" style="ellipse;whiteSpace=wrap;html=1;strokeWidth=1;" vertex="1" parent="1">
          <mxGeometry x="80" y="350" width="100" height="50" as="geometry" />
        </mxCell>
        <mxCell id="gvnlmwaFr9IDAYGD7fr9-13" value="" style="edgeStyle=orthogonalEdgeStyle;rounded=0;orthogonalLoop=1;jettySize=auto;html=1;" edge="1" parent="1" source="gvnlmwaFr9IDAYGD7fr9-10" target="gvnlmwaFr9IDAYGD7fr9-12">
          <mxGeometry relative="1" as="geometry" />
        </mxCell>
        <mxCell id="gvnlmwaFr9IDAYGD7fr9-10" value="Réception du Tissu" style="ellipse;whiteSpace=wrap;html=1;strokeWidth=2;" vertex="1" parent="1">
          <mxGeometry x="250" y="340" width="116" height="70" as="geometry" />
        </mxCell>
        <mxCell id="gvnlmwaFr9IDAYGD7fr9-11" value="Gérant donne feu vert" style="ellipse;whiteSpace=wrap;html=1;strokeWidth=2;" vertex="1" parent="1">
          <mxGeometry x="420" y="345" width="120" height="60" as="geometry" />
        </mxCell>
        <mxCell id="gvnlmwaFr9IDAYGD7fr9-12" value="ET" style="triangle;whiteSpace=wrap;html=1;strokeWidth=1;direction=south;" vertex="1" parent="1">
          <mxGeometry x="268" y="460" width="80" height="60" as="geometry" />
        </mxCell>
        <mxCell id="gvnlmwaFr9IDAYGD7fr9-14" value="" style="endArrow=classic;html=1;rounded=0;exitX=1;exitY=1;exitDx=0;exitDy=0;entryX=-0.01;entryY=0.995;entryDx=0;entryDy=0;entryPerimeter=0;" edge="1" parent="1" source="gvnlmwaFr9IDAYGD7fr9-7" target="gvnlmwaFr9IDAYGD7fr9-12">
          <mxGeometry width="50" height="50" relative="1" as="geometry">
            <mxPoint x="240" y="320" as="sourcePoint" />
            <mxPoint x="290" y="270" as="targetPoint" />
          </mxGeometry>
        </mxCell>
        <mxCell id="gvnlmwaFr9IDAYGD7fr9-15" value="" style="endArrow=classic;html=1;rounded=0;exitX=0;exitY=1;exitDx=0;exitDy=0;entryX=-0.023;entryY=-0.015;entryDx=0;entryDy=0;entryPerimeter=0;" edge="1" parent="1" source="gvnlmwaFr9IDAYGD7fr9-11" target="gvnlmwaFr9IDAYGD7fr9-12">
          <mxGeometry width="50" height="50" relative="1" as="geometry">
            <mxPoint x="240" y="320" as="sourcePoint" />
            <mxPoint x="290" y="270" as="targetPoint" />
          </mxGeometry>
        </mxCell>
        <mxCell id="gvnlmwaFr9IDAYGD7fr9-16" value="Fabrication" style="rounded=0;whiteSpace=wrap;html=1;strokeWidth=1;" vertex="1" parent="1">
          <mxGeometry x="258" y="520" width="100" height="30" as="geometry" />
        </mxCell>
        <mxCell id="gvnlmwaFr9IDAYGD7fr9-17" value="OP2" style="rounded=0;whiteSpace=wrap;html=1;strokeWidth=1;" vertex="1" parent="1">
          <mxGeometry x="258" y="550" width="100" height="30" as="geometry" />
        </mxCell>
        <mxCell id="gvnlmwaFr9IDAYGD7fr9-18" value="Toujours" style="rounded=0;whiteSpace=wrap;html=1;strokeWidth=1;" vertex="1" parent="1">
          <mxGeometry x="258" y="580" width="100" height="30" as="geometry" />
        </mxCell>
        <mxCell id="gvnlmwaFr9IDAYGD7fr9-19" value="Démarcher client" style="rounded=0;whiteSpace=wrap;html=1;strokeWidth=1;" vertex="1" parent="1">
          <mxGeometry x="610" y="200" width="100" height="30" as="geometry" />
        </mxCell>
        <mxCell id="gvnlmwaFr9IDAYGD7fr9-20" value="OP3" style="rounded=0;whiteSpace=wrap;html=1;strokeWidth=1;" vertex="1" parent="1">
          <mxGeometry x="610" y="230" width="100" height="30" as="geometry" />
        </mxCell>
        <mxCell id="gvnlmwaFr9IDAYGD7fr9-25" value="" style="edgeStyle=orthogonalEdgeStyle;rounded=0;orthogonalLoop=1;jettySize=auto;html=1;" edge="1" parent="1" source="gvnlmwaFr9IDAYGD7fr9-21" target="gvnlmwaFr9IDAYGD7fr9-23">
          <mxGeometry relative="1" as="geometry" />
        </mxCell>
        <mxCell id="gvnlmwaFr9IDAYGD7fr9-21" value="Pas convaincu" style="rounded=0;whiteSpace=wrap;html=1;strokeWidth=1;" vertex="1" parent="1">
          <mxGeometry x="610" y="260" width="50" height="30" as="geometry" />
        </mxCell>
        <mxCell id="gvnlmwaFr9IDAYGD7fr9-26" value="" style="edgeStyle=orthogonalEdgeStyle;rounded=0;orthogonalLoop=1;jettySize=auto;html=1;" edge="1" parent="1" source="gvnlmwaFr9IDAYGD7fr9-22" target="gvnlmwaFr9IDAYGD7fr9-24">
          <mxGeometry relative="1" as="geometry" />
        </mxCell>
        <mxCell id="gvnlmwaFr9IDAYGD7fr9-22" value="Convaincu" style="rounded=0;whiteSpace=wrap;html=1;strokeWidth=1;" vertex="1" parent="1">
          <mxGeometry x="660" y="260" width="50" height="30" as="geometry" />
        </mxCell>
        <mxCell id="gvnlmwaFr9IDAYGD7fr9-23" value="FIN" style="ellipse;whiteSpace=wrap;html=1;strokeWidth=1;" vertex="1" parent="1">
          <mxGeometry x="580" y="315" width="55" height="30" as="geometry" />
        </mxCell>
        <mxCell id="gvnlmwaFr9IDAYGD7fr9-33" value="" style="edgeStyle=orthogonalEdgeStyle;rounded=0;orthogonalLoop=1;jettySize=auto;html=1;" edge="1" parent="1" source="gvnlmwaFr9IDAYGD7fr9-24" target="gvnlmwaFr9IDAYGD7fr9-30">
          <mxGeometry relative="1" as="geometry" />
        </mxCell>
        <mxCell id="gvnlmwaFr9IDAYGD7fr9-24" value="Commandes mené par le client" style="ellipse;whiteSpace=wrap;html=1;strokeWidth=1;" vertex="1" parent="1">
          <mxGeometry x="670" y="320" width="110" height="50" as="geometry" />
        </mxCell>
        <mxCell id="gvnlmwaFr9IDAYGD7fr9-27" value="Honorance de la commande" style="rounded=0;whiteSpace=wrap;html=1;strokeWidth=1;" vertex="1" parent="1">
          <mxGeometry x="675" y="405" width="100" height="30" as="geometry" />
        </mxCell>
        <mxCell id="gvnlmwaFr9IDAYGD7fr9-28" value="OP4" style="rounded=0;whiteSpace=wrap;html=1;strokeWidth=1;" vertex="1" parent="1">
          <mxGeometry x="675" y="435" width="100" height="30" as="geometry" />
        </mxCell>
        <mxCell id="gvnlmwaFr9IDAYGD7fr9-35" value="" style="edgeStyle=orthogonalEdgeStyle;rounded=0;orthogonalLoop=1;jettySize=auto;html=1;" edge="1" parent="1" source="gvnlmwaFr9IDAYGD7fr9-29" target="gvnlmwaFr9IDAYGD7fr9-34">
          <mxGeometry relative="1" as="geometry" />
        </mxCell>
        <mxCell id="gvnlmwaFr9IDAYGD7fr9-29" value="Pas honoré" style="rounded=0;whiteSpace=wrap;html=1;strokeWidth=1;" vertex="1" parent="1">
          <mxGeometry x="675" y="465" width="50" height="30" as="geometry" />
        </mxCell>
        <mxCell id="gvnlmwaFr9IDAYGD7fr9-32" value="" style="edgeStyle=orthogonalEdgeStyle;rounded=0;orthogonalLoop=1;jettySize=auto;html=1;" edge="1" parent="1" source="gvnlmwaFr9IDAYGD7fr9-30" target="gvnlmwaFr9IDAYGD7fr9-31">
          <mxGeometry relative="1" as="geometry" />
        </mxCell>
        <mxCell id="gvnlmwaFr9IDAYGD7fr9-30" value="Honoré" style="rounded=0;whiteSpace=wrap;html=1;strokeWidth=1;" vertex="1" parent="1">
          <mxGeometry x="725" y="465" width="50" height="30" as="geometry" />
        </mxCell>
        <mxCell id="gvnlmwaFr9IDAYGD7fr9-31" value="Commande honoré" style="ellipse;whiteSpace=wrap;html=1;strokeWidth=1;" vertex="1" parent="1">
          <mxGeometry x="740" y="520" width="70" height="40" as="geometry" />
        </mxCell>
        <mxCell id="gvnlmwaFr9IDAYGD7fr9-37" value="" style="edgeStyle=orthogonalEdgeStyle;rounded=0;orthogonalLoop=1;jettySize=auto;html=1;" edge="1" parent="1" source="gvnlmwaFr9IDAYGD7fr9-34" target="gvnlmwaFr9IDAYGD7fr9-36">
          <mxGeometry relative="1" as="geometry" />
        </mxCell>
        <mxCell id="gvnlmwaFr9IDAYGD7fr9-34" value="Commande à rediscuter" style="ellipse;whiteSpace=wrap;html=1;rounded=0;strokeWidth=1;" vertex="1" parent="1">
          <mxGeometry x="520" y="460" width="90" height="40" as="geometry" />
        </mxCell>
        <mxCell id="gvnlmwaFr9IDAYGD7fr9-36" value="ET" style="triangle;whiteSpace=wrap;html=1;strokeWidth=1;direction=south;" vertex="1" parent="1">
          <mxGeometry x="532.5" y="530" width="65" height="40" as="geometry" />
        </mxCell>
        <mxCell id="gvnlmwaFr9IDAYGD7fr9-38" value="Négociation" style="rounded=0;whiteSpace=wrap;html=1;strokeWidth=1;" vertex="1" parent="1">
          <mxGeometry x="485.63" y="570" width="158.75" height="40" as="geometry" />
        </mxCell>
        <mxCell id="gvnlmwaFr9IDAYGD7fr9-39" value="OP5" style="rounded=0;whiteSpace=wrap;html=1;strokeWidth=1;" vertex="1" parent="1">
          <mxGeometry x="485.62" y="610" width="158.75" height="40" as="geometry" />
        </mxCell>
        <mxCell id="gvnlmwaFr9IDAYGD7fr9-40" value="Pas content" style="rounded=0;whiteSpace=wrap;html=1;strokeWidth=1;" vertex="1" parent="1">
          <mxGeometry x="435.01" y="650" width="65.01" height="40" as="geometry" />
        </mxCell>
        <mxCell id="gvnlmwaFr9IDAYGD7fr9-41" value="Livraison partielle" style="rounded=0;whiteSpace=wrap;html=1;strokeWidth=1;" vertex="1" parent="1">
          <mxGeometry x="500.02" y="650" width="65.01" height="40" as="geometry" />
        </mxCell>
        <mxCell id="gvnlmwaFr9IDAYGD7fr9-45" value="" style="edgeStyle=orthogonalEdgeStyle;rounded=0;orthogonalLoop=1;jettySize=auto;html=1;" edge="1" parent="1" source="gvnlmwaFr9IDAYGD7fr9-42" target="gvnlmwaFr9IDAYGD7fr9-44">
          <mxGeometry relative="1" as="geometry" />
        </mxCell>
        <mxCell id="gvnlmwaFr9IDAYGD7fr9-42" value="Appel à la sous-traitance" style="rounded=0;whiteSpace=wrap;html=1;strokeWidth=1;" vertex="1" parent="1">
          <mxGeometry x="630.01" y="650" width="64.99" height="40" as="geometry" />
        </mxCell>
        <mxCell id="gvnlmwaFr9IDAYGD7fr9-43" value="Commande reporté" style="rounded=0;whiteSpace=wrap;html=1;strokeWidth=1;" vertex="1" parent="1">
          <mxGeometry x="565.02" y="650" width="64.99" height="40" as="geometry" />
        </mxCell>
        <mxCell id="gvnlmwaFr9IDAYGD7fr9-47" value="" style="edgeStyle=orthogonalEdgeStyle;rounded=0;orthogonalLoop=1;jettySize=auto;html=1;" edge="1" parent="1" source="gvnlmwaFr9IDAYGD7fr9-44" target="gvnlmwaFr9IDAYGD7fr9-46">
          <mxGeometry relative="1" as="geometry" />
        </mxCell>
        <mxCell id="gvnlmwaFr9IDAYGD7fr9-44" value="Sous-traitance engagé" style="ellipse;whiteSpace=wrap;html=1;rounded=0;strokeWidth=1;" vertex="1" parent="1">
          <mxGeometry x="723.74" y="645" width="102.51" height="50" as="geometry" />
        </mxCell>
        <mxCell id="gvnlmwaFr9IDAYGD7fr9-46" value="ET" style="triangle;whiteSpace=wrap;html=1;strokeWidth=1;direction=south;" vertex="1" parent="1">
          <mxGeometry x="725" y="720" width="60" height="30" as="geometry" />
        </mxCell>
        <mxCell id="gvnlmwaFr9IDAYGD7fr9-48" value="Honorance de la commande" style="rounded=0;whiteSpace=wrap;html=1;strokeWidth=1;" vertex="1" parent="1">
          <mxGeometry x="705" y="750" width="100" height="30" as="geometry" />
        </mxCell>
        <mxCell id="gvnlmwaFr9IDAYGD7fr9-49" value="OP4" style="rounded=0;whiteSpace=wrap;html=1;strokeWidth=1;" vertex="1" parent="1">
          <mxGeometry x="705" y="780" width="100" height="30" as="geometry" />
        </mxCell>
        <mxCell id="gvnlmwaFr9IDAYGD7fr9-50" value="Pas honoré" style="rounded=0;whiteSpace=wrap;html=1;strokeWidth=1;" vertex="1" parent="1">
          <mxGeometry x="705" y="810" width="50" height="30" as="geometry" />
        </mxCell>
        <mxCell id="gvnlmwaFr9IDAYGD7fr9-51" value="Honoré" style="rounded=0;whiteSpace=wrap;html=1;strokeWidth=1;" vertex="1" parent="1">
          <mxGeometry x="755" y="810" width="50" height="30" as="geometry" />
        </mxCell>
      </root>
    </mxGraphModel>
  </diagram>
</mxfile>
